<svg viewBox="0 0 128 128" fill="none" stroke-linecap="square" stroke-miterlimit="10" xmlns="http://www.w3.org/2000/svg">
  <clipPath id="a">
    <path d="M0 0h128v128H0V0z"/>
  </clipPath>
  <g clip-path="url(#a)">
    <path fill="none" d="M0 0h128v128H0z"/>
    <path fill="#24292e" d="M0 21.3C0 9.6 9.6 0 21.3 0h85.4A21.3 21.3 0 0 1 128 21.3v85.4c0 11.7-9.6 21.3-21.3 21.3H21.3A21.3 21.3 0 0 1 0 106.7z" fill-rule="evenodd"/>
    <path fill="none" d="M0 0h128v128H0z"/>
    <path fill="#fff" d="M40.6 82q-1.2 1.5-2.8 2.7-1.6 1.2-3.6 2.1-2 .9-4.4 1.4-2.4.5-5 .5-4.3 0-7.6-1.7t-5.5-4.5q-2.3-3-3.5-6.8-1.2-4-1.2-8.4v-5.9Q7 57 8.2 53q1.1-3.9 3.3-6.8 2.2-2.9 5.4-4.6 3.2-1.6 7.3-1.6 3.7 0 6.6 1 2.9 1 5 2.9 2 1.9 3.3 4.6 1.2 2.8 1.5 6.1H33q-.3-1.9-.9-3.4-.6-1.5-1.6-2.6-1-1-2.6-1.6-1.4-.6-3.5-.6-2.4 0-4.2 1.2-1.8 1.2-3 3.3-1.1 2-1.7 4.8-.5 2.7-.6 5.6v6q0 3 .6 5.6.6 2.7 1.8 4.8 1.3 2 3.2 3.3 1.9 1.2 4.6 1.3l2.3-.2 2.2-.4 2-.9q.8-.5 1.4-1.2V70h-8.5v-6h16.2v18zm17.5-41.4L64 61.1l6.5-20.5h9.7V88h-7.4V71.7l.5-20.7L66 73.7h-4l-6.7-22 .4 20V88h-7.3V40.6H58zm39.2 29.2V88h-7.9V40.6h15.9q3.5 0 6.5 1t5.2 3q2.2 1.9 3.4 4.6 1.3 2.7 1.3 6.2 0 3.3-1.3 6-1.2 2.6-3.4 4.5-2.1 1.9-5.2 2.9-3 1-6.5 1h-8zm0-6.3h8q2 0 3.5-.6 1.6-.6 2.7-1.6 1.1-1.1 1.7-2.6.6-1.5.6-3.3 0-1.8-.6-3.4-.6-1.6-1.7-2.7t-2.7-1.7q-1.5-.6-3.5-.7h-8v16.6z"/>
  </g>
</svg>
